<svg version="1.0" xmlns="http://www.w3.org/2000/svg"
 width="1280.000000pt" height="1070.000000pt" viewBox="0 0 1280.000000 1070.000000"
 preserveAspectRatio="xMidYMid meet">
<metadata>
Created by potrace 1.15, written by Peter Selinger 2001-2017
</metadata>
<g transform="translate(0.000000,1070.000000) scale(0.100000,-0.100000)"
fill="#f25005" stroke="none">
<path d="M6775 10647 c-182 -94 -297 -193 -352 -300 -31 -63 -53 -177 -53
-281 0 -441 -201 -736 -737 -1078 l-128 -82 -95 3 c-205 6 -409 -63 -665 -224
l-90 -56 56 58 c32 33 56 68 57 81 0 12 8 36 16 53 l15 30 -56 26 c-112 51
-264 48 -533 -13 -299 -66 -497 -136 -765 -270 -284 -141 -340 -189 -340 -295
0 -49 4 -62 27 -86 l28 -29 -163 -12 c-107 -7 -196 -20 -262 -37 -103 -26
-245 -88 -302 -131 l-32 -24 -11 37 c-19 71 -90 182 -158 251 -83 82 -220 175
-370 250 -94 47 -124 57 -177 60 -111 7 -195 -54 -195 -144 0 -85 62 -138 210
-179 125 -35 217 -75 300 -130 69 -46 211 -188 242 -242 l17 -30 -53 -64 c-29
-35 -89 -118 -133 -184 -220 -331 -312 -533 -331 -723 l-7 -66 -83 -66 c-193
-157 -420 -307 -642 -425 -168 -89 -185 -100 -206 -143 -13 -28 -14 -39 -4
-63 28 -66 97 -90 188 -64 53 15 247 106 710 331 106 52 196 94 200 94 14 0
104 -114 128 -162 38 -74 52 -146 69 -340 19 -221 48 -336 119 -483 107 -220
263 -393 491 -545 75 -51 302 -169 353 -185 l24 -7 -28 -29 c-79 -83 -243
-112 -384 -70 -39 12 -142 53 -228 90 -330 143 -575 200 -860 201 -484 1 -926
-152 -1308 -451 -255 -200 -327 -331 -229 -418 76 -66 147 -53 325 58 224 140
370 211 580 281 258 85 501 123 785 122 199 0 238 -4 730 -77 419 -62 688 -58
905 15 47 15 86 27 87 27 0 -1 -20 -30 -46 -64 -136 -181 -189 -323 -196 -518
-1 -60 -8 -132 -14 -160 -6 -27 -27 -158 -46 -290 -49 -338 -73 -451 -126
-602 -70 -198 -135 -299 -316 -486 -206 -213 -256 -300 -257 -442 0 -93 15
-134 70 -195 74 -81 156 -100 249 -56 87 40 167 144 359 466 196 327 314 574
386 810 18 58 37 122 44 144 l12 38 74 -98 c275 -369 438 -561 656 -775 303
-296 591 -500 969 -684 482 -236 1017 -379 1533 -411 112 -7 112 -7 132 -38
41 -64 116 -130 200 -178 65 -37 136 -66 975 -399 418 -165 879 -348 1025
-406 312 -124 358 -139 468 -155 147 -22 263 13 348 104 61 66 86 125 86 204
-1 91 -33 143 -114 185 -47 24 -93 34 -253 54 -621 79 -1187 279 -1705 604
l-105 66 75 13 c741 127 1573 467 2095 855 435 324 696 690 829 1165 61 216
98 427 145 822 60 506 65 571 65 875 0 303 -9 412 -55 620 -41 186 -156 475
-249 626 -16 27 -30 52 -30 56 0 11 492 -6 605 -21 305 -40 512 -90 845 -203
235 -79 261 -86 335 -86 62 0 92 5 132 22 168 74 189 263 44 394 -77 70 -224
125 -485 182 -597 130 -1075 185 -1598 185 l-228 0 -198 198 c-108 110 -256
248 -328 309 -564 474 -1258 872 -1954 1123 -115 42 -390 129 -472 150 -24 6
-49 13 -56 16 -9 3 1 21 33 56 124 137 194 367 257 838 18 140 22 214 22 485
1 290 -1 323 -17 353 -21 38 -71 72 -107 72 -69 -1 -164 -80 -188 -157 -13
-41 -73 -447 -98 -663 -21 -181 -39 -262 -75 -340 -66 -143 -157 -190 -369
-190 -189 0 -453 -42 -625 -100 -49 -16 -94 -30 -98 -30 -5 0 14 27 43 60 l52
60 68 0 c38 0 72 5 75 10 4 6 -17 10 -54 10 -34 0 -61 2 -61 5 0 3 28 40 61
83 73 91 99 131 146 224 70 141 102 265 158 613 64 401 123 566 253 715 38 43
47 71 24 70 -4 -1 -52 -24 -107 -53z m-790 -2137 l-7 -85 -23 70 -23 69 27 54
26 54 3 -38 c2 -22 1 -77 -3 -124z m-1779 -178 c-18 -30 -336 -143 -395 -141
-14 0 5 9 44 19 85 22 220 70 295 104 64 29 63 29 56 18z"/>
</g>
</svg>
